<svg width="204" height="30" viewBox="0 0 204 30" fill="none" xmlns="http://www.w3.org/2000/svg">
<path d="M11.6815 11.6064H5.22478V21.1562C5.22478 23.6565 5.4052 25.2932 5.76606 26.0665C6.12692 26.8397 6.97751 27.2264 8.31783 27.2264L11.8748 26.9557L12.0295 28.9275C10.3283 29.1853 9.02666 29.3142 8.12452 29.3142C6.16558 29.3142 4.79948 28.8373 4.02622 27.8836C3.27873 26.9042 2.90498 25.0483 2.90498 22.3161V11.6064H0.0439064V9.55729H2.90498V3.48716H5.22478V9.55729H11.6815V11.6064ZM17.5846 28.8889H15.3035V0.974052H17.5846V10.6785C19.7498 9.67327 21.8376 9.17065 23.8481 9.17065C26.4256 9.17065 28.1397 9.8537 28.9903 11.2198C29.8666 12.5859 30.3048 15.0861 30.3048 18.7205V28.8889H27.985V18.8365C27.985 15.8723 27.7015 13.8747 27.1344 12.8437C26.5931 11.7869 25.3946 11.2585 23.5387 11.2585C22.6366 11.2585 21.6829 11.3745 20.6777 11.6064C19.6982 11.8126 18.9378 12.0317 18.3965 12.2637L17.5846 12.573V28.8889ZM35.9188 28.8889V9.55729H38.2V12.341C39.1536 11.6709 40.3135 11.0265 41.6796 10.4079C43.0715 9.78926 44.3474 9.37686 45.5073 9.17065V11.4904C44.399 11.7224 43.2391 12.0833 42.0276 12.573C40.8162 13.037 39.8754 13.4494 39.2052 13.8102L38.2 14.3902V28.8889H35.9188ZM49.0205 28.8889V9.55729H51.3016V28.8889H49.0205ZM49.0205 4.72439V1.82464H51.3016V4.72439H49.0205ZM60.1936 11.6064V28.8889H57.8738V11.6064H55.3607V9.55729H57.8738V7.58546C57.8738 4.85326 58.2475 3.01032 58.995 2.05662C59.7425 1.07716 61.0699 0.587421 62.9773 0.587421L66.7277 0.780737V2.75256C65.2069 2.70101 64.0728 2.67523 63.3253 2.67523C62.1139 2.67523 61.289 3.01032 60.8509 3.68048C60.4127 4.35064 60.1936 5.66519 60.1936 7.62412V9.55729H66.0317V11.6064H60.1936ZM79.4176 11.6064H72.9609V21.1562C72.9609 23.6565 73.1413 25.2932 73.5022 26.0665C73.863 26.8397 74.7136 27.2264 76.0539 27.2264L79.611 26.9557L79.7656 28.9275C78.0644 29.1853 76.7628 29.3142 75.8606 29.3142C73.9017 29.3142 72.5356 28.8373 71.7623 27.8836C71.0148 26.9042 70.6411 25.0483 70.6411 22.3161V11.6064H67.78V9.55729H70.6411V3.48716H72.9609V9.55729H79.4176V11.6064ZM93.8161 28.8889H91.5349V9.55729H93.8161V10.9878C95.775 9.77638 97.8628 9.17065 100.08 9.17065C102.296 9.17065 103.868 9.8537 104.796 11.2198C105.724 10.6527 106.846 10.1759 108.16 9.78926C109.5 9.37686 110.699 9.17065 111.756 9.17065C114.333 9.17065 116.047 9.8537 116.898 11.2198C117.774 12.5601 118.213 15.0603 118.213 18.7205V28.8889H115.931V18.8365C115.931 15.8723 115.648 13.8747 115.081 12.8437C114.54 11.7869 113.341 11.2585 111.485 11.2585C110.557 11.2585 109.604 11.4002 108.624 11.6838C107.645 11.9415 106.897 12.2122 106.382 12.4957L105.608 12.8823C105.995 13.8618 106.188 15.8465 106.188 18.8365V28.8889H103.868V18.9138C103.868 15.898 103.585 13.8747 103.018 12.8437C102.477 11.7869 101.291 11.2585 99.4609 11.2585C98.5587 11.2585 97.6308 11.4002 96.6771 11.6838C95.7492 11.9415 95.0404 12.2122 94.5507 12.4957L93.8161 12.8823V28.8889ZM137.117 15.3181V25.6798C137.22 26.6335 138.058 27.2006 139.63 27.381L139.514 29.2369C137.53 29.2369 136.073 28.7213 135.146 27.6903C132.723 28.7471 130.3 29.2755 127.877 29.2755C126.15 29.2755 124.835 28.7858 123.933 27.8063C123.031 26.8011 122.58 25.3834 122.58 23.5534C122.58 21.6975 123.031 20.3314 123.933 19.4551C124.861 18.5529 126.305 17.9988 128.263 17.7925L134.836 17.1353V15.3181C134.836 13.8747 134.514 12.8437 133.87 12.225C133.251 11.5807 132.413 11.2585 131.357 11.2585C129.707 11.2585 127.568 11.4131 124.938 11.7224L123.74 11.8384L123.624 9.98258C126.459 9.44129 128.934 9.17065 131.047 9.17065C133.187 9.17065 134.733 9.67327 135.687 10.6785C136.64 11.6838 137.117 13.2303 137.117 15.3181ZM124.977 23.3987C124.977 26.002 126.047 27.3037 128.186 27.3037C129.114 27.3037 130.132 27.2006 131.241 26.9944C132.349 26.7624 133.225 26.5304 133.87 26.2985L134.836 25.9505V18.9524L128.534 19.6097C127.271 19.7128 126.356 20.0737 125.789 20.6923C125.248 21.3109 124.977 22.213 124.977 23.3987ZM143.111 28.8889V9.55729H145.392V12.341C146.346 11.6709 147.506 11.0265 148.872 10.4079C150.264 9.78926 151.54 9.37686 152.7 9.17065V11.4904C151.591 11.7224 150.431 12.0833 149.22 12.573C148.008 13.037 147.068 13.4494 146.397 13.8102L145.392 14.3902V28.8889H143.111ZM158.494 28.8889H156.213V0.974052H158.494V17.5992L161.78 17.5219L167.734 9.55729H170.402L163.791 18.4112L170.711 28.8889H168.005L161.819 19.5711L158.494 19.6484V28.8889ZM186.643 26.9557L187.803 26.8397L187.88 28.7342C184.967 29.0951 182.506 29.2755 180.495 29.2755C177.712 29.2497 175.766 28.4249 174.657 26.8011C173.549 25.1772 172.995 22.677 172.995 19.3004C172.995 12.5472 175.65 9.17065 180.959 9.17065C183.511 9.17065 185.418 9.90525 186.681 11.3745C187.944 12.8179 188.576 15.1377 188.576 18.3338L188.499 20.1897H175.353C175.353 22.561 175.753 24.3266 176.552 25.4865C177.377 26.6206 178.768 27.1877 180.727 27.1877C182.712 27.1877 184.684 27.1104 186.643 26.9557ZM175.353 18.2565H186.256C186.256 15.7047 185.831 13.8876 184.98 12.805C184.155 11.7224 182.815 11.1811 180.959 11.1811C179.129 11.1811 177.737 11.7482 176.784 12.8823C175.83 13.9907 175.353 15.7821 175.353 18.2565ZM202.959 11.6064H196.502V21.1562C196.502 23.6565 196.682 25.2932 197.043 26.0665C197.404 26.8397 198.255 27.2264 199.595 27.2264L203.152 26.9557L203.307 28.9275C201.605 29.1853 200.304 29.3142 199.402 29.3142C197.443 29.3142 196.077 28.8373 195.303 27.8836C194.556 26.9042 194.182 25.0483 194.182 22.3161V11.6064H191.321V9.55729H194.182V3.48716H196.502V9.55729H202.959V11.6064Z" fill="#333333"/>
</svg>
