<svg width="232" height="52" viewBox="0 0 232 52" fill="none" xmlns="http://www.w3.org/2000/svg">
<path d="M4.68565 5.88022C7.48541 2.34822 11.6204 0.582223 17.0907 0.582223C22.561 0.582223 26.6745 2.34822 29.4312 5.88022C32.2309 9.41221 33.6308 15.0979 33.6308 22.9372C33.6308 30.7334 32.2525 36.3329 29.4958 39.7357C26.7391 43.0954 22.6041 44.7752 17.0907 44.7752C11.5774 44.7752 7.44233 43.0954 4.68565 39.7357C1.92897 36.3329 0.550632 30.7334 0.550632 22.9372C0.550632 15.0979 1.92897 9.41221 4.68565 5.88022ZM24.4562 22.7433C24.4562 17.4023 23.8963 13.6765 22.7764 11.5659C21.6565 9.41221 19.7612 8.33538 17.0907 8.33538C14.4633 8.33538 12.568 9.41221 11.4051 11.5659C10.2852 13.7195 9.72521 17.4454 9.72521 22.7433C9.72521 28.0413 10.3067 31.7456 11.4697 33.8562C12.6326 35.9668 14.5279 37.0221 17.1553 37.0221C19.7828 37.0221 21.6565 35.9668 22.7764 33.8562C23.8963 31.7456 24.4562 28.0413 24.4562 22.7433ZM40.8393 5.88022C43.6391 2.34822 47.7741 0.582223 53.2444 0.582223C58.7147 0.582223 62.8281 2.34822 65.5848 5.88022C68.3846 9.41221 69.7844 15.0979 69.7844 22.9372C69.7844 30.7334 68.4061 36.3329 65.6494 39.7357C62.8928 43.0954 58.7577 44.7752 53.2444 44.7752C47.731 44.7752 43.596 43.0954 40.8393 39.7357C38.0826 36.3329 36.7043 30.7334 36.7043 22.9372C36.7043 15.0979 38.0826 9.41221 40.8393 5.88022ZM60.6099 22.7433C60.6099 17.4023 60.0499 13.6765 58.93 11.5659C57.8101 9.41221 55.9149 8.33538 53.2444 8.33538C50.6169 8.33538 48.7217 9.41221 47.5587 11.5659C46.4388 13.7195 45.8789 17.4454 45.8789 22.7433C45.8789 28.0413 46.4604 31.7456 47.6233 33.8562C48.7863 35.9668 50.6815 37.0221 53.309 37.0221C55.9364 37.0221 57.8101 35.9668 58.93 33.8562C60.0499 31.7456 60.6099 28.0413 60.6099 22.7433ZM76.993 5.88022C79.7927 2.34822 83.9277 0.582223 89.398 0.582223C94.8683 0.582223 98.9818 2.34822 101.738 5.88022C104.538 9.41221 105.938 15.0979 105.938 22.9372C105.938 30.7334 104.56 36.3329 101.803 39.7357C99.0464 43.0954 94.9114 44.7752 89.398 44.7752C83.8847 44.7752 79.7497 43.0954 76.993 39.7357C74.2363 36.3329 72.858 30.7334 72.858 22.9372C72.858 15.0979 74.2363 9.41221 76.993 5.88022ZM96.7635 22.7433C96.7635 17.4023 96.2036 13.6765 95.0837 11.5659C93.9638 9.41221 92.0686 8.33538 89.398 8.33538C86.7706 8.33538 84.8754 9.41221 83.7124 11.5659C82.5925 13.7195 82.0325 17.4454 82.0325 22.7433C82.0325 28.0413 82.614 31.7456 83.777 33.8562C84.94 35.9668 86.8352 37.0221 89.4626 37.0221C92.0901 37.0221 93.9638 35.9668 95.0837 33.8562C96.2036 31.7456 96.7635 28.0413 96.7635 22.7433ZM108.753 51.9469L111.984 35.1484H121.546L115.731 51.9469H108.753ZM130.119 5.88022C132.919 2.34822 137.054 0.582223 142.524 0.582223C147.995 0.582223 152.108 2.34822 154.865 5.88022C157.665 9.41221 159.064 15.0979 159.064 22.9372C159.064 30.7334 157.686 36.3329 154.929 39.7357C152.173 43.0954 148.038 44.7752 142.524 44.7752C137.011 44.7752 132.876 43.0954 130.119 39.7357C127.363 36.3329 125.984 30.7334 125.984 22.9372C125.984 15.0979 127.363 9.41221 130.119 5.88022ZM149.89 22.7433C149.89 17.4023 149.33 13.6765 148.21 11.5659C147.09 9.41221 145.195 8.33538 142.524 8.33538C139.897 8.33538 138.002 9.41221 136.839 11.5659C135.719 13.7195 135.159 17.4454 135.159 22.7433C135.159 28.0413 135.74 31.7456 136.903 33.8562C138.066 35.9668 139.962 37.0221 142.589 37.0221C145.216 37.0221 147.09 35.9668 148.21 33.8562C149.33 31.7456 149.89 28.0413 149.89 22.7433ZM166.273 5.88022C169.073 2.34822 173.208 0.582223 178.678 0.582223C184.148 0.582223 188.262 2.34822 191.018 5.88022C193.818 9.41221 195.218 15.0979 195.218 22.9372C195.218 30.7334 193.84 36.3329 191.083 39.7357C188.326 43.0954 184.191 44.7752 178.678 44.7752C173.165 44.7752 169.03 43.0954 166.273 39.7357C163.516 36.3329 162.138 30.7334 162.138 22.9372C162.138 15.0979 163.516 9.41221 166.273 5.88022ZM186.044 22.7433C186.044 17.4023 185.484 13.6765 184.364 11.5659C183.244 9.41221 181.349 8.33538 178.678 8.33538C176.051 8.33538 174.155 9.41221 172.992 11.5659C171.872 13.7195 171.313 17.4454 171.313 22.7433C171.313 28.0413 171.894 31.7456 173.057 33.8562C174.22 35.9668 176.115 37.0221 178.743 37.0221C181.37 37.0221 183.244 35.9668 184.364 33.8562C185.484 31.7456 186.044 28.0413 186.044 22.7433ZM202.427 5.88022C205.226 2.34822 209.361 0.582223 214.832 0.582223C220.302 0.582223 224.415 2.34822 227.172 5.88022C229.972 9.41221 231.372 15.0979 231.372 22.9372C231.372 30.7334 229.993 36.3329 227.237 39.7357C224.48 43.0954 220.345 44.7752 214.832 44.7752C209.318 44.7752 205.183 43.0954 202.427 39.7357C199.67 36.3329 198.292 30.7334 198.292 22.9372C198.292 15.0979 199.67 9.41221 202.427 5.88022ZM222.197 22.7433C222.197 17.4023 221.637 13.6765 220.517 11.5659C219.397 9.41221 217.502 8.33538 214.832 8.33538C212.204 8.33538 210.309 9.41221 209.146 11.5659C208.026 13.7195 207.466 17.4454 207.466 22.7433C207.466 28.0413 208.048 31.7456 209.211 33.8562C210.374 35.9668 212.269 37.0221 214.896 37.0221C217.524 37.0221 219.397 35.9668 220.517 33.8562C221.637 31.7456 222.197 28.0413 222.197 22.7433Z" fill="black"/>
</svg>
