<svg width="80" height="28" viewBox="0 0 80 28" fill="none" xmlns="http://www.w3.org/2000/svg">
<path d="M0.866339 27.6249V6.25235H4.86994V7.06511C6.17437 6.28245 7.31825 5.89112 8.30159 5.89112C10.3285 5.89112 11.8236 6.5032 12.7868 7.72736C13.7501 8.93145 14.2317 10.9884 14.2317 13.8983C14.2317 16.8082 13.6999 18.8351 12.6363 19.979C11.5727 21.1028 9.82677 21.6647 7.39852 21.6647C6.73627 21.6647 6.02385 21.6045 5.26126 21.4841L4.90004 21.4239V27.6249H0.866339ZM7.51893 9.50339C6.77641 9.50339 6.02385 9.6539 5.26126 9.95492L4.90004 10.1054V17.9922C5.80311 18.1126 6.53559 18.1728 7.0975 18.1728C8.26145 18.1728 9.05415 17.8317 9.47558 17.1494C9.91708 16.467 10.1378 15.3031 10.1378 13.6575C10.1378 10.8881 9.26486 9.50339 7.51893 9.50339ZM18.0531 7.96818C19.1167 6.58347 20.8927 5.89112 23.3812 5.89112C25.8696 5.89112 27.6456 6.58347 28.7093 7.96818C29.7729 9.33281 30.3047 11.2594 30.3047 13.7478C30.3047 19.0257 27.9968 21.6647 23.3812 21.6647C18.7655 21.6647 16.4576 19.0257 16.4576 13.7478C16.4576 11.2594 16.9895 9.33281 18.0531 7.96818ZM21.1536 17.1494C21.575 17.8718 22.3176 18.233 23.3812 18.233C24.4448 18.233 25.1773 17.8718 25.5786 17.1494C26.0001 16.4269 26.2108 15.2931 26.2108 13.7478C26.2108 12.2026 26.0001 11.0787 25.5786 10.3764C25.1773 9.67397 24.4448 9.32278 23.3812 9.32278C22.3176 9.32278 21.575 9.67397 21.1536 10.3764C20.7522 11.0787 20.5516 12.2026 20.5516 13.7478C20.5516 15.2931 20.7522 16.4269 21.1536 17.1494ZM33.2615 21.3035V6.25235H37.2952V21.3035H33.2615ZM33.2615 4.32581V0.231902H37.2952V4.32581H33.2615ZM45.0559 21.3035H41.0222V6.25235H45.0258V7.09521C46.3905 6.29249 47.6447 5.89112 48.7886 5.89112C50.7954 5.89112 52.1801 6.48313 52.9427 7.66715C53.7053 8.85118 54.0866 10.6774 54.0866 13.1458V21.3035H50.0529V13.2662C50.0529 11.9818 49.9024 11.0386 49.6014 10.4366C49.3004 9.81445 48.6983 9.50339 47.7952 9.50339C46.9725 9.50339 46.1798 9.64387 45.4172 9.92482L45.0559 10.0452V21.3035ZM65.9991 9.684H62.2965V15.855C62.2965 16.457 62.3066 16.8885 62.3266 17.1494C62.3668 17.3902 62.4771 17.6009 62.6578 17.7815C62.8584 17.9621 63.1595 18.0524 63.5608 18.0524L65.8486 17.9922L66.0292 21.2132C64.6846 21.5142 63.6612 21.6647 62.9588 21.6647C61.1526 21.6647 59.9185 21.2633 59.2562 20.4606C58.594 19.6378 58.2628 18.1327 58.2628 15.9453V9.684H56.4868V6.25235H58.2628V2.06814H62.2965V6.25235H65.9991V9.684ZM79.4325 10.0151C76.944 9.69404 75.1981 9.53349 74.1947 9.53349C73.2113 9.53349 72.5692 9.6238 72.2681 9.80441C71.9872 9.98503 71.8467 10.276 71.8467 10.6774C71.8467 11.0587 72.0373 11.3296 72.4186 11.4901C72.82 11.6306 73.8234 11.8514 75.4289 12.1524C77.0544 12.4333 78.2083 12.9049 78.8906 13.5672C79.5729 14.2294 79.9141 15.3031 79.9141 16.7881C79.9141 20.0392 77.8972 21.6647 73.8635 21.6647C72.5391 21.6647 70.9336 21.4841 69.0472 21.1229L68.0839 20.9422L68.2043 17.5708C70.6928 17.8919 72.4186 18.0524 73.3819 18.0524C74.3653 18.0524 75.0275 17.9621 75.3687 17.7815C75.7299 17.5808 75.9105 17.2898 75.9105 16.9085C75.9105 16.5272 75.7199 16.2463 75.3386 16.0657C74.9773 15.8851 74.0141 15.6643 72.4487 15.4034C70.9035 15.1425 69.7496 14.701 68.987 14.0789C68.2244 13.4568 67.8431 12.3531 67.8431 10.7677C67.8431 9.16223 68.3849 7.95814 69.4686 7.15542C70.5523 6.33262 71.947 5.92122 73.6528 5.92122C74.8369 5.92122 76.4523 6.11187 78.4993 6.49317L79.4927 6.67378L79.4325 10.0151Z" fill="black"/>
</svg>
