<svg width="62" height="62" viewBox="0 0 62 62" fill="none" xmlns="http://www.w3.org/2000/svg">
<path d="M30.9999 46.4166C39.5143 46.4166 46.4166 39.5143 46.4166 31C46.4166 22.4856 39.5143 15.5833 30.9999 15.5833C22.4855 15.5833 15.5833 22.4856 15.5833 31C15.5833 39.5143 22.4855 46.4166 30.9999 46.4166Z" fill="#003E9A"/>
<path d="M31.0001 0.166611C24.9018 0.166611 18.9405 1.97495 13.87 5.36296C8.7995 8.75098 4.84751 13.5665 2.51381 19.2005C0.180108 24.8346 -0.430495 31.0341 0.759216 37.0152C1.94893 42.9963 4.88552 48.4903 9.19764 52.8024C13.5098 57.1145 19.0037 60.0511 24.9848 61.2408C30.9659 62.4305 37.1655 61.8199 42.7995 59.4862C48.4336 57.1525 53.2491 53.2005 56.6371 48.13C60.0251 43.0595 61.8334 37.0982 61.8334 30.9999C61.8334 26.9509 61.0359 22.9414 59.4864 19.2005C57.9369 15.4597 55.6657 12.0606 52.8026 9.19748C49.9394 6.33435 46.5404 4.06318 42.7995 2.51366C39.0586 0.964139 35.0492 0.166611 31.0001 0.166611ZM31.0001 52.5833C26.7313 52.5833 22.5584 51.3174 19.009 48.9458C15.4597 46.5742 12.6933 43.2034 11.0597 39.2595C9.4261 35.3157 8.99868 30.976 9.83148 26.7892C10.6643 22.6025 12.7199 18.7567 15.7384 15.7382C18.7569 12.7197 22.6026 10.6641 26.7894 9.83133C30.9762 8.99853 35.3158 9.42595 39.2597 11.0595C43.2035 12.6931 46.5744 15.4595 48.946 19.0089C51.3176 22.5582 52.5834 26.7312 52.5834 30.9999C52.5834 36.7242 50.3095 42.214 46.2618 46.2617C42.2142 50.3093 36.7244 52.5833 31.0001 52.5833Z" fill="#003E9A"/>
</svg>
