<svg width="249" height="32" viewBox="0 0 249 32" fill="none" xmlns="http://www.w3.org/2000/svg">
<path d="M16.8652 14.7043C13.3573 14.2517 10.896 14.0254 9.4815 14.0254C8.09528 14.0254 7.19 14.1527 6.76565 14.4073C6.36958 14.6619 6.17155 15.0721 6.17155 15.6379C6.17155 16.1754 6.44031 16.5574 6.97782 16.7837C7.54362 16.9817 8.95813 17.2929 11.2213 17.7172C13.5128 18.1133 15.1395 18.7781 16.1014 19.7117C17.0633 20.6453 17.5442 22.1588 17.5442 24.2523C17.5442 28.8353 14.701 31.1268 9.01471 31.1268C7.14756 31.1268 4.88435 30.8722 2.22508 30.3629L0.86715 30.1083L1.03689 25.3556C4.54487 25.8082 6.97782 26.0345 8.33575 26.0345C9.72197 26.0345 10.6555 25.9072 11.1365 25.6526C11.6457 25.3697 11.9003 24.9595 11.9003 24.422C11.9003 23.8845 11.6316 23.4884 11.094 23.2338C10.5848 22.9792 9.22689 22.668 7.02026 22.3003C4.84192 21.9325 3.21523 21.3101 2.14021 20.4331C1.06518 19.5561 0.527668 18.0001 0.527668 15.7652C0.527668 13.502 1.2915 11.8046 2.81917 10.673C4.34684 9.5131 6.313 8.93316 8.71767 8.93316C10.3868 8.93316 12.6641 9.20191 15.5497 9.73943L16.9501 9.99404L16.8652 14.7043ZM26.3147 22.4276C26.343 23.7289 26.6825 24.6766 27.3331 25.2707C28.0121 25.8365 28.974 26.1194 30.2187 26.1194C32.8497 26.1194 35.1978 26.0345 37.263 25.8648L38.4512 25.7375L38.536 29.9386C35.2827 30.7307 32.3405 31.1268 29.7095 31.1268C26.5127 31.1268 24.1929 30.2781 22.7501 28.5807C21.3073 26.8833 20.5859 24.125 20.5859 20.3058C20.5859 12.6957 23.712 8.89072 29.9641 8.89072C36.1314 8.89072 39.215 12.0875 39.215 18.4811L38.7906 22.4276H26.3147ZM33.6135 18.0992C33.6135 16.4018 33.3448 15.2277 32.8073 14.577C32.2698 13.8981 31.322 13.5586 29.9641 13.5586C28.6345 13.5586 27.6868 13.9122 27.121 14.6195C26.5834 15.2984 26.3005 16.4583 26.2723 18.0992H33.6135ZM43.5334 30.6176V0.912899H49.2198V30.6176H43.5334ZM59.3843 22.4276C59.4126 23.7289 59.7521 24.6766 60.4028 25.2707C61.0817 25.8365 62.0436 26.1194 63.2884 26.1194C65.9193 26.1194 68.2674 26.0345 70.3326 25.8648L71.5208 25.7375L71.6057 29.9386C68.3523 30.7307 65.4101 31.1268 62.7791 31.1268C59.5824 31.1268 57.2626 30.2781 55.8198 28.5807C54.377 26.8833 53.6556 24.125 53.6556 20.3058C53.6556 12.6957 56.7816 8.89072 63.0338 8.89072C69.201 8.89072 72.2846 12.0875 72.2846 18.4811L71.8603 22.4276H59.3843ZM66.6832 18.0992C66.6832 16.4018 66.4144 15.2277 65.8769 14.577C65.3394 13.8981 64.3917 13.5586 63.0338 13.5586C61.7041 13.5586 60.7564 13.9122 60.1906 14.6195C59.6531 15.2984 59.3702 16.4583 59.3419 18.0992H66.6832ZM84.2838 8.89072C85.7549 8.89072 87.6362 9.11704 89.9277 9.56968L91.0735 9.8243L90.9037 14.3224C88.6688 14.0961 87.0138 13.9829 85.9388 13.9829C83.9868 13.9829 82.6855 14.4073 82.0348 15.256C81.4124 16.0764 81.1012 17.6465 81.1012 19.9663C81.1012 22.2861 81.4124 23.8845 82.0348 24.7615C82.6855 25.6102 84.0009 26.0345 85.9813 26.0345L90.9037 25.6951L91.0735 30.2356C88.0464 30.8297 85.7408 31.1268 84.1565 31.1268C81.0163 31.1268 78.7531 30.2498 77.3669 28.4958C76.009 26.7135 75.33 23.8704 75.33 19.9663C75.33 16.0623 76.0373 13.2474 77.4518 11.5217C78.8663 9.76772 81.1436 8.89072 84.2838 8.89072ZM107.041 14.2376H101.822V22.9368C101.822 23.7855 101.836 24.3937 101.864 24.7615C101.921 25.101 102.076 25.398 102.331 25.6526C102.614 25.9072 103.038 26.0345 103.604 26.0345L106.829 25.9497L107.084 30.4902C105.188 30.9146 103.746 31.1268 102.755 31.1268C100.209 31.1268 98.4695 30.561 97.5359 29.4294C96.6023 28.2695 96.1355 26.1477 96.1355 23.0641V14.2376H93.6319V9.39994H96.1355V3.50145H101.822V9.39994H107.041V14.2376ZM125.755 30.6176H120.068V9.39994H125.712V10.5881C127.664 9.45652 129.333 8.89072 130.72 8.89072C133.011 8.89072 134.779 9.55554 136.024 10.8852C138.627 9.55554 141.003 8.89072 143.153 8.89072C145.954 8.89072 147.892 9.71113 148.967 11.352C150.07 12.9645 150.622 15.5531 150.622 19.1176V30.6176H144.935V19.2873C144.935 17.4768 144.737 16.1471 144.341 15.2984C143.945 14.4214 143.153 13.9829 141.965 13.9829C141.06 13.9829 139.956 14.181 138.655 14.577L138.018 14.7892C138.132 16.911 138.188 18.5235 138.188 19.6268V30.6176H132.502V19.7117C132.502 17.6182 132.318 16.1471 131.95 15.2984C131.582 14.4214 130.776 13.9829 129.531 13.9829C128.428 13.9829 127.339 14.181 126.264 14.577L125.755 14.7468V30.6176ZM171.919 16.0198V24.8464C171.975 25.5253 172.088 26.0063 172.258 26.2892C172.428 26.5438 172.781 26.7277 173.319 26.8408L173.149 31.1268C171.706 31.1268 170.546 31.0278 169.669 30.8297C168.821 30.6317 167.958 30.2356 167.081 29.6415C165.044 30.6317 162.965 31.1268 160.843 31.1268C156.458 31.1268 154.265 28.807 154.265 24.1674C154.265 21.9042 154.874 20.3058 156.09 19.3722C157.307 18.4104 159.174 17.8446 161.692 17.6748L166.232 17.3353V16.0198C166.232 15.1428 166.034 14.5487 165.638 14.2376C165.242 13.8981 164.606 13.7283 163.729 13.7283L155.751 14.0678L155.581 10.1213C158.608 9.30093 161.479 8.89072 164.195 8.89072C166.939 8.89072 168.906 9.45652 170.094 10.5881C171.31 11.7197 171.919 13.5303 171.919 16.0198ZM162.371 21.6213C160.786 21.7627 159.994 22.6114 159.994 24.1674C159.994 25.7234 160.687 26.5013 162.074 26.5013C163.149 26.5013 164.323 26.3316 165.596 25.9921L166.232 25.8224V21.2818L162.371 21.6213ZM177.339 30.6176V9.39994H182.983V11.649C185.36 10.2345 187.623 9.31507 189.773 8.89072V14.6195C187.481 15.1004 185.515 15.5955 183.874 16.1047L183.026 16.4018V30.6176H177.339ZM198.815 30.6176H193.128V0.912899H198.815V17.8021L200.979 17.4202L205.18 9.39994H211.545L206.028 19.4571L211.842 30.6176H205.434L201.148 22.3427L198.815 22.7246V30.6176ZM219.262 22.4276C219.291 23.7289 219.63 24.6766 220.281 25.2707C220.96 25.8365 221.922 26.1194 223.166 26.1194C225.797 26.1194 228.145 26.0345 230.211 25.8648L231.399 25.7375L231.484 29.9386C228.23 30.7307 225.288 31.1268 222.657 31.1268C219.46 31.1268 217.141 30.2781 215.698 28.5807C214.255 26.8833 213.534 24.125 213.534 20.3058C213.534 12.6957 216.66 8.89072 222.912 8.89072C229.079 8.89072 232.163 12.0875 232.163 18.4811L231.738 22.4276H219.262ZM226.561 18.0992C226.561 16.4018 226.292 15.2277 225.755 14.577C225.217 13.8981 224.27 13.5586 222.912 13.5586C221.582 13.5586 220.634 13.9122 220.069 14.6195C219.531 15.2984 219.248 16.4583 219.22 18.0992H226.561ZM247.981 14.2376H242.761V22.9368C242.761 23.7855 242.776 24.3937 242.804 24.7615C242.86 25.101 243.016 25.398 243.271 25.6526C243.554 25.9072 243.978 26.0345 244.544 26.0345L247.769 25.9497L248.023 30.4902C246.128 30.9146 244.685 31.1268 243.695 31.1268C241.149 31.1268 239.409 30.561 238.476 29.4294C237.542 28.2695 237.075 26.1477 237.075 23.0641V14.2376H234.571V9.39994H237.075V3.50145H242.761V9.39994H247.981V14.2376Z" fill="#333333"/>
</svg>
