<svg width="68" height="60" viewBox="0 0 68 60" fill="none" xmlns="http://www.w3.org/2000/svg">
<path d="M36.5785 59.9996H31.8088C23.5863 59.9996 15.7006 56.7332 9.88643 50.9191C4.07225 45.1049 0.805878 37.2192 0.805878 28.9967C0.805878 28.3642 1.05714 27.7576 1.50438 27.3103C1.95163 26.8631 2.55822 26.6118 3.19072 26.6118C3.82322 26.6118 4.42981 26.8631 4.87706 27.3103C5.3243 27.7576 5.57556 28.3642 5.57556 28.9967C5.57556 35.9542 8.33941 42.6267 13.2591 47.5464C18.1788 52.4661 24.8513 55.2299 31.8088 55.2299H36.5785C43.536 55.2299 50.2085 52.4661 55.1282 47.5464C60.0479 42.6267 62.8117 35.9542 62.8117 28.9967C62.8117 28.3642 63.063 27.7576 63.5103 27.3103C63.9575 26.8631 64.5641 26.6118 65.1966 26.6118C65.8291 26.6118 66.4357 26.8631 66.8829 27.3103C67.3302 27.7576 67.5814 28.3642 67.5814 28.9967C67.5814 33.068 66.7795 37.0995 65.2215 40.861C63.6634 44.6224 61.3798 48.0402 58.5009 50.9191C55.622 53.7979 52.2043 56.0816 48.4428 57.6396C44.6814 59.1977 40.6499 59.9996 36.5785 59.9996ZM36.5785 31.3815V5.43444C36.5785 4.80194 36.3272 4.19535 35.88 3.7481C35.4328 3.30086 34.8262 3.0496 34.1937 3.0496C33.5612 3.0496 32.9546 3.30086 32.5073 3.7481C32.0601 4.19535 31.8088 4.80194 31.8088 5.43444V31.3815C31.8088 32.014 32.0601 32.6206 32.5073 33.0678C32.9546 33.5151 33.5612 33.7663 34.1937 33.7663C34.8262 33.7663 35.4328 33.5151 35.88 33.0678C36.3272 32.6206 36.5785 32.014 36.5785 31.3815ZM47.7873 16.6909C48.0108 16.4692 48.1882 16.2054 48.3093 15.9148C48.4303 15.6242 48.4927 15.3125 48.4927 14.9977C48.4927 14.6828 48.4303 14.3711 48.3093 14.0805C48.1882 13.7899 48.0108 13.5261 47.7873 13.3044L35.863 1.09403C35.3985 0.656346 34.7842 0.412598 34.146 0.412598C33.5077 0.412598 32.8935 0.656346 32.4289 1.09403L20.5047 13.3044C20.0619 13.7598 19.8182 14.3724 19.8272 15.0075C19.8361 15.6426 20.097 16.2481 20.5524 16.6909C21.0078 17.1336 21.6204 17.3773 22.2555 17.3684C22.8906 17.3595 23.4961 17.0986 23.9388 16.6432L34.1937 6.17374L44.4008 16.6432C44.6225 16.8667 44.8862 17.0441 45.1769 17.1652C45.4675 17.2863 45.7792 17.3486 46.094 17.3486C46.4088 17.3486 46.7206 17.2863 47.0112 17.1652C47.3018 17.0441 47.5655 16.8667 47.7873 16.6432V16.6909ZM36.5785 40.9209V38.536C36.5785 37.9035 36.3272 37.2969 35.88 36.8497C35.4328 36.4025 34.8262 36.1512 34.1937 36.1512C33.5612 36.1512 32.9546 36.4025 32.5073 36.8497C32.0601 37.2969 31.8088 37.9035 31.8088 38.536V40.9209C31.8088 41.5534 32.0601 42.16 32.5073 42.6072C32.9546 43.0545 33.5612 43.3057 34.1937 43.3057C34.8262 43.3057 35.4328 43.0545 35.88 42.6072C36.3272 42.16 36.5785 41.5534 36.5785 40.9209Z" fill="black"/>
</svg>
