<svg width="60" height="61" viewBox="0 0 60 61" fill="none" xmlns="http://www.w3.org/2000/svg">
<path d="M23.2451 38.7348C19.824 38.7346 16.5088 37.5481 13.8644 35.3776C11.22 33.2071 9.40995 30.1868 8.74275 26.8314C8.07555 23.476 8.59243 19.993 10.2053 16.9759C11.8182 13.9589 14.4273 11.5944 17.5881 10.2854C20.7489 8.97642 24.2658 8.80386 27.5395 9.79715C30.8132 10.7904 33.6413 12.8881 35.5418 15.7328C37.4423 18.5774 38.2977 21.9931 37.9622 25.3977C37.6267 28.8023 36.121 31.9853 33.7018 34.4042C32.3286 35.7773 30.6983 36.8665 28.9042 37.6095C27.11 38.3526 25.187 38.7349 23.2451 38.7348ZM23.2451 13.3851C20.4437 13.3851 17.7572 14.4979 15.7763 16.4788C13.7955 18.4596 12.6827 21.1462 12.6827 23.9475C12.6827 26.7488 13.7955 29.4354 15.7763 31.4162C17.7572 33.397 20.4437 34.5098 23.2451 34.5098C24.632 34.5138 26.0058 34.2411 27.2862 33.708C28.5666 33.1748 29.7279 32.3917 30.7021 31.4045C32.1746 29.9274 33.1768 28.0475 33.5824 26.0017C33.988 23.9558 33.7789 21.8357 32.9814 19.9086C32.1839 17.9814 30.8337 16.3335 29.101 15.1726C27.3683 14.0117 25.3307 13.3897 23.2451 13.3851ZM57.4672 48.8536L50.6016 41.988C49.3416 40.7078 47.6431 39.9529 45.8485 39.8755C44.7906 39.8275 43.7375 40.0454 42.7855 40.5093L41.0955 38.7982C44.8055 34.3415 46.7151 28.6588 46.4493 22.8661C46.1835 17.0735 43.7615 11.5895 39.659 7.4913C36.4719 4.30785 32.4282 2.11938 28.0199 1.19223C23.6117 0.26507 19.029 0.639193 14.8296 2.26907C10.6301 3.89895 6.99488 6.71431 4.36631 10.3725C1.73774 14.0308 0.229142 18.3742 0.0240926 22.8742C-0.180957 27.3742 0.926383 31.8368 3.21136 35.7189C5.49634 39.6011 8.86044 42.7353 12.8943 44.7404C16.9281 46.7454 21.4578 47.5348 25.9321 47.0124C30.4064 46.4899 34.6323 44.6783 38.0958 41.7979L39.8069 43.4879C39.2146 44.7836 39.0387 46.2312 39.3036 47.631C39.5684 49.0309 40.2609 50.3142 41.2856 51.304L48.1511 58.1696C49.4111 59.4498 51.1096 60.2047 52.9042 60.282H53.2C54.0426 60.2897 54.8783 60.1292 55.6581 59.81C56.438 59.4908 57.1463 59.0193 57.7418 58.4231C58.9663 57.1137 59.6244 55.3738 59.5729 53.5818C59.5215 51.7898 58.7647 50.0906 57.4672 48.8536ZM9.7886 37.3828C7.1303 34.7237 5.32018 31.336 4.58709 27.6481C3.854 23.9603 4.23087 20.1379 5.67004 16.6642C7.10922 13.1905 9.54607 10.2216 12.6725 8.13275C15.7989 6.04393 19.4745 4.92904 23.2345 4.92904C26.9945 4.92904 30.6701 6.04393 33.7965 8.13275C36.9229 10.2216 39.3598 13.1905 40.799 16.6642C42.2381 20.1379 42.615 23.9603 41.8819 27.6481C41.1488 31.336 39.3387 34.7237 36.6804 37.3828C34.9249 39.1667 32.832 40.5835 30.5236 41.5506C28.2151 42.5177 25.7373 43.0157 23.2345 43.0157C20.7317 43.0157 18.2539 42.5177 15.9454 41.5506C13.637 40.5835 11.5441 39.1667 9.7886 37.3828ZM54.7421 55.4445C54.5201 55.6559 54.2581 55.8208 53.9715 55.9296C53.685 56.0385 53.3796 56.089 53.0732 56.0782C52.3408 56.0216 51.6522 55.7073 51.1297 55.191L44.2642 48.3254C43.7554 47.8776 43.4435 47.2474 43.3961 46.5713C43.3487 45.8952 43.5695 45.2276 44.0107 44.7131C44.2137 44.5058 44.4574 44.3425 44.7263 44.2334C44.9953 44.1244 45.2838 44.0719 45.5739 44.0794H45.6795C46.4119 44.1359 47.1005 44.4503 47.623 44.9666L54.4886 51.8321C54.9973 52.28 55.3092 52.9102 55.3567 53.5863C55.4041 54.2624 55.1833 54.93 54.7421 55.4445Z" fill="black"/>
</svg>
