<svg width="58" height="61" viewBox="0 0 58 61" fill="none" xmlns="http://www.w3.org/2000/svg">
<path d="M41.0334 60.2668H16.9401C14.2154 60.3708 11.5609 59.3656 9.55324 57.4695C7.54561 55.5734 6.34709 52.9396 6.2181 50.1405V36.8657C6.2181 36.3015 6.43617 35.7604 6.82435 35.3614C7.21253 34.9624 7.73901 34.7383 8.28798 34.7383C8.83694 34.7383 9.36342 34.9624 9.7516 35.3614C10.1398 35.7604 10.3579 36.3015 10.3579 36.8657V50.1405C10.4851 51.8114 11.2467 53.3639 12.4783 54.4625C13.7099 55.5611 15.3125 56.1177 16.9401 56.012H41.0334C42.6609 56.1177 44.2636 55.5611 45.4952 54.4625C46.7267 53.3639 47.4884 51.8114 47.6156 50.1405V36.8657C47.6156 36.3015 47.8337 35.7604 48.2219 35.3614C48.6101 34.9624 49.1365 34.7383 49.6855 34.7383C50.2345 34.7383 50.761 34.9624 51.1491 35.3614C51.5373 35.7604 51.7554 36.3015 51.7554 36.8657V50.1405C51.6264 52.9396 50.4279 55.5734 48.4202 57.4695C46.4126 59.3656 43.7581 60.3708 41.0334 60.2668ZM57.3647 31.994C57.5587 31.7962 57.7127 31.5609 57.8178 31.3017C57.9229 31.0425 57.977 30.7644 57.977 30.4836C57.977 30.2027 57.9229 29.9247 57.8178 29.6654C57.7127 29.4062 57.5587 29.1709 57.3647 28.9731L30.4563 1.31726C30.2639 1.11787 30.035 0.959602 29.7828 0.851598C29.5305 0.743594 29.26 0.687988 28.9867 0.687988C28.7135 0.687988 28.4429 0.743594 28.1907 0.851598C27.9385 0.959602 27.7095 1.11787 27.5171 1.31726L0.608733 28.9731C0.218968 29.3737 0 29.917 0 30.4836C0 31.0501 0.218968 31.5934 0.608733 31.994C0.998499 32.3946 1.52713 32.6196 2.07835 32.6196C2.62956 32.6196 3.15819 32.3946 3.54796 31.994L28.9867 5.82729L54.4255 31.994C54.6179 32.1934 54.8469 32.3516 55.0991 32.4597C55.3513 32.5677 55.6219 32.6233 55.8951 32.6233C56.1684 32.6233 56.4389 32.5677 56.6912 32.4597C56.9434 32.3516 57.1723 32.1934 57.3647 31.994Z" fill="black"/>
</svg>
