<svg width="56" height="60" viewBox="0 0 56 60" fill="none" xmlns="http://www.w3.org/2000/svg">
<path d="M54.3696 43.9809C53.7743 42.9178 53.0513 41.8546 52.2433 40.7276C50.3206 38.3267 48.9879 35.5083 48.3521 32.4988L47.4591 19.9535C46.9275 10.2362 41.2502 0.412598 29.9595 0.412598H25.239C13.9483 0.412598 8.22845 10.2362 7.65435 19.9322L6.76129 32.4988C6.12828 35.5349 4.79595 38.3816 2.87012 40.8127C2.14717 41.9184 1.42423 42.939 0.935172 43.8959C0.410306 44.6003 0.0924262 45.4372 0.0172967 46.3125C-0.0578328 47.1877 0.112769 48.0666 0.509907 48.8502C0.973256 49.6731 1.65586 50.3513 2.48175 50.8093C3.30763 51.2672 4.24441 51.4871 5.18781 51.4443H21.603C21.2533 52.4078 21.1409 53.4414 21.2754 54.4575C21.4099 55.4737 21.7872 56.4424 22.3755 57.2818C22.9638 58.1212 23.7457 58.8064 24.655 59.2795C25.5643 59.7526 26.5742 59.9996 27.5992 59.9996C28.6242 59.9996 29.6341 59.7526 30.5434 59.2795C31.4527 58.8064 32.2346 58.1212 32.8229 57.2818C33.4112 56.4424 33.7886 55.4737 33.9231 54.4575C34.0575 53.4414 33.9452 52.4078 33.5955 51.4443H50.0107C50.9628 51.4789 51.9055 51.2463 52.7323 50.7728C53.559 50.2993 54.2367 49.6039 54.6886 48.7651C55.086 48.017 55.2667 47.1728 55.2104 46.3276C55.154 45.4824 54.8628 44.6696 54.3696 43.9809ZM29.7256 53.5706C29.7256 53.9912 29.6009 54.4023 29.3672 54.7519C29.1336 55.1016 28.8015 55.3741 28.4129 55.5351C28.0244 55.696 27.5969 55.7381 27.1844 55.6561C26.7719 55.574 26.3931 55.3715 26.0957 55.0742C25.7983 54.7768 25.5958 54.3979 25.5138 53.9854C25.4317 53.573 25.4738 53.1454 25.6348 52.7569C25.7957 52.3684 26.0682 52.0363 26.4179 51.8026C26.7676 51.569 27.1787 51.4443 27.5992 51.4443C28.1632 51.4443 28.704 51.6683 29.1028 52.0671C29.5015 52.4658 29.7256 53.0067 29.7256 53.5706ZM50.9888 46.8302C50.9888 47.0003 50.6273 47.1917 50.0957 47.1917H5.18781C4.65623 47.1917 4.37981 47.0003 4.29476 46.8302C4.20971 46.6601 4.29476 46.4262 4.50739 46.086C5.0815 45.1079 5.74066 44.0872 6.42108 43.0666C8.5474 40.0047 10.6737 36.5175 10.9927 32.7965L11.907 20.2299C12.3535 13.0429 16.1171 4.66524 25.239 4.66524H29.9595C39.0814 4.66524 42.845 13.0429 43.2915 20.2512L44.2058 32.7965C44.461 36.5601 46.7361 40.0047 48.8624 43.0666C49.5429 44.0872 50.202 45.1929 50.8825 46.2773C50.9502 46.3503 50.996 46.4408 51.0148 46.5385C51.0336 46.6363 51.0246 46.7373 50.9888 46.8302Z" fill="black"/>
</svg>
