<svg width="60" height="61" viewBox="0 0 60 61" fill="none" xmlns="http://www.w3.org/2000/svg">
<path d="M50.8613 9.42103C45.234 3.79396 37.7519 0.694702 29.7938 0.694702C21.8357 0.694702 14.3536 3.79384 8.72633 9.42103C3.09925 15.0483 0 22.5304 0 30.4885C0 38.4466 3.09914 45.9287 8.72633 51.556C14.3536 57.183 21.8357 60.2823 29.7938 60.2823C37.7519 60.2823 45.234 57.1832 50.8613 51.556C56.4883 45.9287 59.5876 38.4466 59.5876 30.4885C59.5876 22.5304 56.4885 15.0483 50.8613 9.42103ZM12.9306 50.6572C13.9145 42.1921 21.1925 35.6567 29.7938 35.6567C34.328 35.6567 38.592 37.4232 41.7993 40.6301C44.5088 43.3401 46.2177 46.8783 46.6573 50.6567C42.0885 54.4832 36.2057 56.7908 29.7938 56.7908C23.3818 56.7908 17.4995 54.4837 12.9306 50.6572ZM29.7938 32.0605C24.8044 32.0605 20.7446 28.0008 20.7446 23.0114C20.7446 18.0215 24.8045 13.9623 29.7938 13.9623C34.7831 13.9623 38.843 18.0215 38.843 23.0114C38.843 28.0008 34.7832 32.0606 29.7938 32.0606V32.0605ZM49.6624 47.7054C48.7653 44.0928 46.9003 40.7932 44.2679 38.1616C42.1221 36.0157 39.5835 34.4059 36.8149 33.3971C40.1432 31.14 42.3344 27.3266 42.3344 23.0114C42.3344 16.0967 36.7085 10.4708 29.7938 10.4708C22.8791 10.4708 17.2532 16.0967 17.2532 23.0114C17.2532 27.329 19.4463 31.1436 22.7772 33.4004C20.23 34.3286 17.8729 35.7639 15.8448 37.6532C12.9079 40.3882 10.8686 43.8756 9.92296 47.7026C5.91826 43.0859 3.49146 37.0655 3.49146 30.4885C3.49146 15.9853 15.2906 4.18616 29.7938 4.18616C44.297 4.18616 56.0961 15.9853 56.0961 30.4885C56.0961 37.0668 53.6684 43.0887 49.6624 47.7054Z" fill="black"/>
</svg>
